<?xml version="1.0" standalone="no"?>
<!DOCTYPE svg PUBLIC "-//W3C//DTD SVG 20010904//EN"
 "http://www.w3.org/TR/2001/REC-SVG-20010904/DTD/svg10.dtd">
<svg version="1.0" xmlns="http://www.w3.org/2000/svg"
 width="300.000000pt" height="450.000000pt" viewBox="0 0 300.000000 450.000000"
 preserveAspectRatio="xMidYMid meet">
<defs>
  <linearGradient id="goldGradient" x1="0%" y1="0%" x2="0%" y2="100%">
    <stop offset="0%" style="stop-color:#f9e8a6; stop-opacity:1" />
    <stop offset="100%" style="stop-color:#f7b55e; stop-opacity:1" />
  </linearGradient>
</defs>
<metadata>
Created by potrace 1.10, written by Peter Selinger 2001-2011
</metadata>
<g transform="translate(0.000000,450.000000) scale(0.100000,-0.100000)"
fill="url(#goldGradient)" stroke="none">
<path d="M1195 4001 c-57 -25 -113 -91 -121 -141 l-7 -40 -104 0 c-118 0 -157
-13 -177 -61 l-13 -30 -179 -2 c-164 -2 -183 -4 -221 -24 -48 -26 -76 -62 -92
-118 -15 -56 -15 -2324 0 -2380 14 -51 73 -110 124 -124 56 -15 1714 -15 1770
0 53 15 110 73 125 129 8 30 11 112 8 254 l-3 209 28 10 c16 5 29 7 31 6 1 -2
57 -92 123 -199 67 -108 131 -204 143 -215 15 -14 36 -20 67 -20 38 0 49 5 74
33 53 59 46 81 -100 306 l-129 200 50 55 c260 291 137 754 -235 880 l-49 17 1
396 c2 446 0 469 -59 528 -50 50 -98 60 -284 60 l-155 0 -16 30 c-25 48 -61
60 -178 60 l-104 0 -7 38 c-7 48 -67 119 -120 143 -53 24 -139 24 -191 0z
m171 -67 c41 -20 71 -65 80 -124 4 -25 12 -48 18 -52 6 -4 66 -8 132 -8 86 0
125 -4 132 -13 6 -7 12 -56 14 -110 l3 -97 -455 0 -455 0 3 97 c2 54 8 103 14
110 7 9 46 13 132 13 66 0 126 4 132 8 6 4 14 27 18 52 14 90 69 139 154 140
24 0 59 -7 78 -16z m-594 -371 l3 -98 515 0 515 0 3 98 3 97 167 0 c150 0 170
-2 200 -20 61 -38 63 -47 60 -487 l-3 -397 -50 3 c-218 11 -441 -144 -525
-364 -31 -82 -38 -227 -16 -312 38 -152 154 -296 289 -362 76 -37 212 -65 270
-56 l38 5 -3 -224 c-3 -210 -4 -226 -24 -253 -11 -15 -32 -34 -45 -40 -19 -10
-215 -12 -891 -10 l-868 2 -32 33 -33 32 -3 1173 c-2 1101 -1 1174 15 1207 31
60 65 70 250 70 l162 0 3 -97z m1511 -831 c16 -17 16 -19 0 -19 -35 -2 -46 6
-33 22 15 19 14 19 33 -3z m22 -57 c135 -36 251 -132 311 -259 62 -130 59
-293 -7 -425 -74 -149 -257 -261 -424 -261 -217 0 -420 153 -475 359 -18 68
-14 196 8 268 76 241 337 383 587 318z m205 -885 c0 -15 -7 -20 -25 -20 -17 0
-23 4 -19 15 4 8 10 13 14 10 5 -3 11 -1 15 5 10 16 15 12 15 -10z m-96 -55
c-8 -13 -13 -29 -9 -36 6 -8 2 -8 -13 0 -32 17 -34 39 -4 50 41 15 44 13 26
-14z m200 -177 c110 -170 126 -200 116 -218 -6 -11 -21 -20 -34 -20 -20 0 -44
32 -149 199 l-126 200 32 19 c18 10 32 19 33 18 1 -1 58 -90 128 -198z m-324
145 c-1 -19 -18 -33 -33 -27 -18 6 -21 16 -10 27 9 9 43 9 43 0z"/>
<path d="M1775 3291 c-57 -29 -79 -70 -72 -136 l5 -52 -107 -101 c-80 -74
-111 -98 -122 -91 -26 17 -109 10 -139 -11 l-28 -20 -103 60 c-99 57 -103 61
-106 96 -6 100 -121 157 -204 101 -18 -12 -39 -34 -46 -47 -15 -29 -17 -94 -4
-118 7 -13 -7 -35 -62 -97 l-72 -80 -58 0 c-55 0 -61 -2 -92 -37 -44 -47 -53
-95 -29 -145 22 -45 76 -83 116 -83 94 0 165 108 125 189 l-15 30 71 78 c43
47 78 76 87 74 43 -11 101 -4 128 16 l28 21 104 -58 c103 -58 104 -59 106 -98
4 -73 58 -125 129 -125 87 0 141 61 132 147 l-5 52 109 102 c94 89 111 102
128 93 11 -6 37 -11 58 -11 101 0 166 112 113 197 -40 66 -109 87 -175 54z
m105 -71 c11 -11 20 -33 20 -49 0 -75 -104 -95 -130 -25 -26 67 59 125 110 74z
m-857 -152 c38 -45 4 -112 -55 -106 -67 7 -87 92 -29 123 31 17 59 11 84 -17z
m442 -233 c14 -13 25 -33 25 -45 0 -28 -43 -70 -71 -70 -31 0 -69 38 -69 69 0
32 37 71 67 71 13 0 35 -11 48 -25z m-753 -128 c13 -21 9 -70 -9 -89 -21 -24
-68 -23 -93 2 -36 36 -20 96 30 112 18 6 62 -9 72 -25z"/>
<path d="M823 2416 c-92 -30 -176 -107 -221 -204 -23 -49 -27 -70 -27 -147 0
-82 3 -97 32 -156 39 -79 102 -140 181 -177 49 -23 70 -27 152 -27 83 0 102 3
151 28 67 32 151 118 182 184 18 39 22 66 22 148 0 87 -3 107 -27 157 -34 73
-103 142 -176 176 -68 32 -199 41 -269 18z m137 -26 c-6 -4 -11 -11 -11 -16 2
-16 -24 -9 -27 7 -2 12 4 17 24 17 15 0 21 -4 14 -8z m117 -358 l161 -2 -10
-38 c-56 -208 -303 -293 -473 -164 -159 122 -151 378 15 488 23 15 62 33 88
39 l47 12 5 -166 5 -166 162 -3z m4 298 c66 -34 140 -136 151 -208 l3 -24
-133 -1 -132 -2 0 137 0 136 38 -10 c20 -6 53 -18 73 -28z m187 -270 c-1 -17
-3 -30 -4 -30 -2 0 -18 9 -36 20 -20 12 -26 20 -17 20 9 0 22 7 29 15 17 21
29 10 28 -25z"/>
<path d="M1394 2176 c-3 -8 -4 -23 -2 -33 3 -15 15 -18 85 -21 75 -3 82 -1 88
18 12 38 -11 50 -92 50 -55 0 -75 -4 -79 -14z"/>
<path d="M1394 2006 c-3 -8 -4 -23 -2 -33 3 -15 15 -18 77 -21 76 -3 101 6
101 38 0 24 -20 30 -101 30 -51 0 -71 -4 -75 -14z"/>
<path d="M1397 1843 c-4 -3 -7 -17 -7 -29 0 -31 21 -35 154 -32 89 2 111 6
119 20 8 12 7 21 -2 32 -11 13 -36 16 -136 16 -67 0 -125 -3 -128 -7z"/>
<path d="M577 1543 c-13 -12 -7 -51 9 -57 9 -3 267 -6 574 -6 599 0 591 -1
575 50 -6 20 -11 20 -579 20 -315 0 -576 -3 -579 -7z"/>
<path d="M573 1364 c-3 -9 -2 -24 4 -33 9 -14 68 -16 575 -19 608 -2 599 -3
583 48 -6 20 -11 20 -581 20 -523 0 -575 -1 -581 -16z"/>
<path d="M2081 2529 c-6 -18 -11 -40 -11 -50 0 -32 -36 -42 -87 -25 -26 9 -50
16 -54 16 -11 0 -89 -133 -89 -151 0 -8 16 -30 35 -49 19 -19 35 -43 35 -55 0
-12 -16 -36 -35 -55 -19 -19 -35 -40 -35 -49 0 -17 66 -137 80 -146 6 -4 33 1
60 10 55 18 90 9 90 -24 0 -10 5 -32 11 -50 l11 -31 89 0 88 0 10 38 c6 20 11
43 11 50 0 25 44 35 85 18 20 -9 43 -16 51 -16 14 0 94 129 94 152 0 8 -16 29
-35 48 -19 19 -35 43 -35 55 0 12 16 36 35 55 19 19 35 40 35 48 0 19 -72 140
-87 146 -7 3 -32 -2 -57 -10 -47 -16 -86 -7 -86 19 0 7 -5 29 -11 50 l-10 37
-88 0 -89 0 -11 -31z m148 -71 c8 -32 20 -49 46 -65 40 -27 54 -28 98 -9 33
13 33 13 55 -24 l21 -37 -30 -28 c-25 -25 -29 -36 -29 -80 0 -44 4 -55 29 -80
l30 -28 -21 -37 -22 -37 -39 15 c-37 15 -41 15 -83 -8 -37 -19 -46 -30 -55
-64 -10 -40 -11 -41 -52 -40 -40 1 -42 3 -50 40 -6 33 -15 44 -51 64 -43 23
-46 23 -85 8 l-40 -16 -21 35 -21 36 30 31 c26 27 31 40 31 81 0 41 -5 54 -31
81 l-30 31 21 36 21 35 40 -16 c40 -15 43 -15 85 7 36 19 45 30 50 60 9 50 10
51 53 51 37 0 39 -2 50 -42z"/>
<path d="M2105 2297 c-76 -76 -30 -197 75 -197 40 0 85 26 99 57 36 79 -8 161
-92 170 -43 5 -49 3 -82 -30z m103 -43 c26 -18 28 -50 5 -76 -20 -22 -46 -23
-67 -2 -21 20 -20 53 1 76 20 22 32 23 61 2z"/>
</g>
</svg>
